<svg width="12" height="8" viewBox="0 0 12 8" fill="none" xmlns="http://www.w3.org/2000/svg">
<path d="M11.4669 4.38223L8.00741 7.8417C7.79633 8.05277 7.45402 8.05277 7.24295 7.8417C7.03184 7.63058 7.03184 7.28836 7.24295 7.07724L9.77965 4.54055H0.540541C0.242033 4.54055 0 4.29851 0 4.00001C0 3.70154 0.242033 3.45946 0.540541 3.45946H9.77965L7.24304 0.922769C7.03192 0.711655 7.03192 0.369427 7.24304 0.158314C7.34855 0.0528431 7.48693 0 7.62526 0C7.7636 0 7.90194 0.0528431 8.00749 0.158314L11.4669 3.61778C11.678 3.82889 11.678 4.17112 11.4669 4.38223Z" fill="#606060"/>
</svg>
