<svg width="15" height="15" viewBox="0 0 15 15" fill="none" xmlns="http://www.w3.org/2000/svg">
<path d="M5.41892 8.27542C5.41892 8.08751 5.26305 7.93529 5.07073 7.93529H3.85569C3.66359 7.93529 3.50769 8.08751 3.50769 8.27542V9.46336C3.50769 9.65151 3.66359 9.8038 3.85569 9.8038H5.07073C5.26305 9.8038 5.41892 9.65151 5.41892 9.46336V8.27542Z" fill="#999999"/>
<path d="M8.45547 8.27542C8.45547 8.08751 8.29957 7.93529 8.10763 7.93529H6.89243C6.70033 7.93529 6.54443 8.08751 6.54443 8.27542V9.46336C6.54443 9.65151 6.70033 9.8038 6.89243 9.8038H8.10763C8.29957 9.8038 8.45547 9.65151 8.45547 9.46336V8.27542Z" fill="#999999"/>
<path d="M11.4923 8.27542C11.4923 8.08751 11.3364 7.93529 11.1443 7.93529H9.92924C9.73692 7.93529 9.58105 8.08751 9.58105 8.27542V9.46336C9.58105 9.65151 9.73692 9.8038 9.92924 9.8038H11.1443C11.3364 9.8038 11.4923 9.65151 11.4923 9.46336V8.27542Z" fill="#999999"/>
<path d="M5.41892 11.245C5.41892 11.0568 5.26305 10.9046 5.07073 10.9046H3.85569C3.66359 10.9046 3.50769 11.0568 3.50769 11.245V12.4327C3.50769 12.6207 3.66359 12.773 3.85569 12.773H5.07073C5.26305 12.773 5.41892 12.6207 5.41892 12.4327V11.245Z" fill="#999999"/>
<path d="M8.45547 11.245C8.45547 11.0568 8.29957 10.9046 8.10763 10.9046H6.89243C6.70033 10.9046 6.54443 11.0568 6.54443 11.245V12.4327C6.54443 12.6207 6.70033 12.773 6.89243 12.773H8.10763C8.29957 12.773 8.45547 12.6207 8.45547 12.4327V11.245Z" fill="#999999"/>
<path d="M11.4923 11.245C11.4923 11.0568 11.3364 10.9046 11.1444 10.9046H9.92924C9.73692 10.9046 9.58105 11.0568 9.58105 11.245V12.4327C9.58105 12.6207 9.73692 12.773 9.92924 12.773H11.1444C11.3364 12.773 11.4923 12.6207 11.4923 12.4327V11.245Z" fill="#999999"/>
<path d="M13.6649 1.67023V3.48472C13.6649 4.30485 12.9844 4.96575 12.1458 4.96575H11.1876C10.3489 4.96575 9.65951 4.30485 9.65951 3.48472V1.66371H5.34049V3.48472C5.34049 4.30485 4.65109 4.96575 3.81255 4.96575H2.85413C2.01556 4.96575 1.33518 4.30485 1.33518 3.48472V1.67023C0.602256 1.69183 0 2.28485 0 3.01375V13.6475C0 14.3901 0.615549 15 1.37499 15H13.625C14.3833 15 15 14.3889 15 13.6475V3.01375C15 2.28485 14.3978 1.69183 13.6649 1.67023ZM13.2198 12.9853C13.2198 13.3063 12.9537 13.5666 12.6254 13.5666H2.34847C2.02014 13.5666 1.75404 13.3063 1.75404 12.9853V7.49261C1.75404 7.17157 2.02011 6.91121 2.34847 6.91121H12.6253C12.9536 6.91121 13.2198 7.17157 13.2198 7.49261L13.2198 12.9853Z" fill="#999999"/>
<path d="M2.85067 3.99296H3.79851C4.0862 3.99296 4.31947 3.7652 4.31947 3.48389V0.509256C4.31947 0.22791 4.0862 0 3.79851 0H2.85067C2.56295 0 2.32971 0.22791 2.32971 0.509256V3.48389C2.32971 3.7652 2.56295 3.99296 2.85067 3.99296Z" fill="#999999"/>
<path d="M11.1755 3.99296H12.1233C12.4108 3.99296 12.6441 3.7652 12.6441 3.48389V0.509256C12.6441 0.22791 12.4108 0 12.1233 0H11.1755C10.8878 0 10.6545 0.22791 10.6545 0.509256V3.48389C10.6545 3.7652 10.8878 3.99296 11.1755 3.99296Z" fill="#999999"/>
</svg>
