<svg width="13" height="10" viewBox="0 0 13 10" fill="none" xmlns="http://www.w3.org/2000/svg">
<path d="M0.15 5.3625C0.05 5.265 0 5.11875 0 5.02125C0 4.92375 0.05 4.7775 0.15 4.68L0.85 3.9975C1.05 3.8025 1.35 3.8025 1.55 3.9975L1.6 4.04625L4.35 6.9225C4.45 7.02 4.6 7.02 4.7 6.9225L11.4 0.14625H11.45C11.65 -0.04875 11.95 -0.04875 12.15 0.14625L12.85 0.82875C13.05 1.02375 13.05 1.31625 12.85 1.51125L4.85 9.60375C4.75 9.70125 4.65 9.75 4.5 9.75C4.35 9.75 4.25 9.70125 4.15 9.60375L0.25 5.50875L0.15 5.3625Z" fill="#999999"/>
</svg>
