<svg width="23" height="23" viewBox="0 0 23 23" fill="none" xmlns="http://www.w3.org/2000/svg">
<path opacity="0.9" d="M12.075 0.574997C8.05 0.574997 4.485 2.76 2.645 6.095L0 3.45V10.925H7.475L4.255 7.705C5.75 4.83 8.625 2.875 12.075 2.875C16.79 2.875 20.7 6.785 20.7 11.5C20.7 16.215 16.79 20.125 12.075 20.125C8.28 20.125 5.175 17.71 3.91 14.375H1.495C2.76 18.975 7.015 22.425 12.075 22.425C18.17 22.425 23 17.48 23 11.5C23 5.52 18.055 0.574997 12.075 0.574997ZM10.35 6.325V12.19L15.755 15.41L16.675 13.915L12.075 11.155V6.325H10.35Z" fill="white"/>
</svg>
