<svg width="12" height="14" viewBox="0 0 12 14" fill="none" xmlns="http://www.w3.org/2000/svg">
<path d="M11.8127 4.15619C11.6877 3.86456 11.5378 3.63375 11.3627 3.46359L8.43765 0.619719C8.26256 0.449721 8.02522 0.303826 7.72519 0.182225C7.42529 0.0607524 7.15028 0 6.90039 0H0.899962C0.650007 0 0.437487 0.0850151 0.262499 0.255173C0.0874776 0.425235 0 0.631851 0 0.874956V13.125C0 13.3682 0.0874776 13.5748 0.262499 13.7449C0.437519 13.9149 0.650007 14 0.899995 14H11.1002C11.3502 14 11.5625 13.9149 11.7375 13.7449C11.9125 13.5747 12 13.3682 12 13.125V4.9583C12.0001 4.71522 11.9376 4.44782 11.8127 4.15619ZM7.20016 1.2395C7.38132 1.30025 7.50942 1.36717 7.58448 1.43999L10.519 4.29296C10.5938 4.36594 10.6626 4.49044 10.7251 4.66667H7.20016V1.2395ZM10.8002 12.8334H1.19996V1.16668H6V4.95839C6 5.20147 6.08741 5.40802 6.26243 5.57818C6.43752 5.74824 6.64991 5.83338 6.90003 5.83338H10.8002V12.8334Z" fill="#1D7BFA"/>
</svg>
