<svg width="22" height="13" viewBox="0 0 22 13" fill="none" xmlns="http://www.w3.org/2000/svg">
<path d="M10.9043 0C6.73756 0 2.95891 2.27968 0.170642 5.9825C-0.0568806 6.28586 -0.0568806 6.70968 0.170642 7.01304C2.95891 10.7203 6.73756 13 10.9043 13C15.0711 13 18.8498 10.7203 21.638 7.0175C21.8656 6.71414 21.8656 6.29032 21.638 5.98696C18.8498 2.27969 15.0711 0 10.9043 0ZM11.2032 11.0772C8.43729 11.2512 6.15314 8.97152 6.32713 6.2011C6.46989 3.91695 8.32129 2.06555 10.6054 1.92279C13.3714 1.7488 15.6555 4.02848 15.4816 6.7989C15.3343 9.07859 13.4829 10.93 11.2032 11.0772ZM11.0649 8.96259C9.5749 9.05628 8.3436 7.82944 8.44175 6.3394C8.51759 5.1081 9.5169 4.11325 10.7482 4.03294C12.2382 3.93926 13.4695 5.1661 13.3714 6.65614C13.2911 7.8919 12.2918 8.88675 11.0649 8.96259Z" fill="#999999" fill-opacity="0.75"/>
</svg>
