<svg width="14" height="14" viewBox="0 0 14 14" fill="none" xmlns="http://www.w3.org/2000/svg">
<path d="M13.0123 3.80829C12.9694 2.75129 12.5175 1.7724 11.7393 1.05394C11.3717 0.715396 10.9534 0.451909 10.4954 0.271146C10.0374 0.0919138 9.55331 0 9.05544 0C9.00182 0 8.94668 0.0015319 8.89306 0.00306379C7.83605 0.0459569 6.8587 0.497866 6.13871 1.2776L1.68242 6.08622C1.53996 6.24096 1.54762 6.48147 1.70081 6.62545L2.01025 6.91651C2.16497 7.06204 2.40854 7.05438 2.55407 6.89813L7.01342 2.08644C7.52201 1.53496 8.26805 1.21786 9.0585 1.21786C9.7693 1.21786 10.4357 1.47062 10.932 1.93019C11.4758 2.43265 11.7929 3.11588 11.8221 3.85731C11.8512 4.59722 11.5938 5.30189 11.0944 5.84265L5.03729 12.3088C4.73398 12.6366 4.29126 12.825 3.82097 12.825C3.39816 12.825 3.0014 12.6749 2.70575 12.4007C2.38252 12.102 2.19562 11.696 2.17571 11.2548C2.15733 10.8152 2.31052 10.3954 2.60617 10.0753C2.60617 10.0753 8.24355 4.05953 8.25276 4.05187C8.74601 3.54021 9.51962 4.28471 9.02636 4.79637C8.18842 5.66495 6.0361 7.98884 4.98216 9.1301C4.83968 9.28484 4.84734 9.52533 5.00053 9.66933L5.30997 9.96039C5.46471 10.1059 5.70826 10.0983 5.85379 9.94201L9.91179 5.56691C10.5536 4.87143 10.5108 3.78225 9.81374 3.13886C9.49664 2.84626 9.0815 2.68388 8.64797 2.68388C8.41359 2.68388 8.18686 2.72984 7.97239 2.82175C7.75181 2.9152 7.55573 3.05307 7.39333 3.23077L1.73604 9.26338C0.674436 10.4138 0.747967 12.2138 1.89842 13.2769C2.40395 13.7442 3.08564 14 3.81789 14C4.63132 14 5.39268 13.6798 5.90739 13.1222L11.9645 6.65607C12.6814 5.87789 13.0537 4.86683 13.0123 3.80829Z" fill="#1D7BFA"/>
</svg>
