<svg width="22" height="22" viewBox="0 0 22 22" fill="none" xmlns="http://www.w3.org/2000/svg">
<path d="M19.3337 1H9.33367C8.4132 1 7.66699 1.74621 7.66699 2.66668V5.58336C7.66699 5.81348 7.85355 6.00004 8.08367 6.00004H8.91699C9.14711 6.00004 9.33367 5.81348 9.33367 5.58336V2.66668H19.3337V19.3334H9.33367V16.4167C9.33367 16.1866 9.14711 16 8.91699 16H8.08367C7.85355 16 7.66699 16.1866 7.66699 16.4167V19.3334C7.66699 20.2538 8.41316 21 9.33367 21H19.3337C20.2542 21 21.0004 20.2538 21.0004 19.3333V2.66668C21.0004 1.74621 20.2542 1 19.3337 1Z" fill="#333333" fill-opacity="0.9"/>
<path d="M19.3337 0.925H9.33367C8.37178 0.925 7.59199 1.70479 7.59199 2.66668V5.58336C7.59199 5.8549 7.81213 6.07504 8.08367 6.07504H8.91699C9.18853 6.07504 9.40867 5.8549 9.40867 5.58336V2.74168H19.2587V19.2584H9.40867V16.4167C9.40867 16.1451 9.18853 15.925 8.91699 15.925H8.08367C7.81213 15.925 7.59199 16.1451 7.59199 16.4167V19.3334C7.59199 20.2952 8.37174 21.075 9.33367 21.075H19.3337C20.2956 21.075 21.0754 20.2952 21.0754 19.3333V2.66668C21.0754 1.70479 20.2956 0.925 19.3337 0.925Z" stroke="#333333" stroke-opacity="0.9" stroke-width="0.15"/>
<path d="M10.3046 14.4404C10.2167 14.5193 10.1667 14.632 10.1667 14.75V15.5833C10.1667 15.7485 10.2643 15.8983 10.4157 15.9646C10.4694 15.9886 10.5268 16 10.5834 16C10.6855 16 10.7864 15.9621 10.8649 15.8905L15.8649 11.3072C15.9512 11.2283 16 11.1168 16 11C16 10.8832 15.9512 10.7717 15.8649 10.6928L10.8649 6.10946C10.7429 5.99837 10.5659 5.96786 10.4157 6.0354C10.2643 6.10173 10.1667 6.25145 10.1667 6.41665V7.25001C10.1667 7.36801 10.2167 7.48071 10.3046 7.55965L13.2011 10.1667H1.41668C1.18637 10.1667 1 10.3531 1 10.5833V11.4166C1 11.647 1.18637 11.8333 1.41668 11.8333H13.2011L10.3046 14.4404Z" fill="#333333" fill-opacity="0.9"/>
<path d="M10.9156 15.9458L10.9155 15.9459C10.823 16.0303 10.704 16.075 10.5834 16.075C10.5169 16.075 10.4491 16.0616 10.3854 16.0332C10.3853 16.0331 10.3852 16.0331 10.3851 16.033L10.4157 15.9646C10.2643 15.8983 10.1667 15.7485 10.1667 15.5833V14.75C10.1667 14.632 10.2167 14.5193 10.3046 14.4404L10.9156 15.9458ZM10.9156 15.9458L15.9155 11.3625L10.9156 15.9458ZM13.0057 11.9083L10.2545 14.3846L15.8649 11.3072C15.9512 11.2283 16 11.1168 16 11C16 10.8832 15.9512 10.7717 15.8649 10.6928L15.9156 10.6375L15.9156 10.6375L10.9156 6.05417L10.9154 6.05399C10.772 5.92349 10.5634 5.88688 10.3853 5.96685C10.2068 6.04523 10.0917 6.22185 10.0917 6.41665V7.25001C10.0917 7.38922 10.1507 7.52223 10.2545 7.61545L13.0057 10.0917H1.41668C1.14495 10.0917 0.925 10.3116 0.925 10.5833V11.4166C0.925 11.6884 1.14495 11.9083 1.41668 11.9083H13.0057Z" stroke="#333333" stroke-opacity="0.9" stroke-width="0.15"/>
</svg>
