<svg width="21" height="21" viewBox="0 0 21 21" fill="none" xmlns="http://www.w3.org/2000/svg">
<path d="M8.20088 14.7615H10.9891V16.4016H8.20088V14.7615ZM5.12551 14.5565C4.5593 14.5565 4.10044 15.0154 4.10044 15.5816C4.10044 16.1477 4.5593 16.6067 5.12551 16.6067C5.69172 16.6067 6.15058 16.1477 6.15058 15.5816C6.15058 15.0154 5.69172 14.5565 5.12551 14.5565ZM16.4836 9.55392H8.20088V11.1941H16.4836V9.55392ZM5.12551 9.349C4.5593 9.349 4.10044 9.80786 4.10044 10.3741C4.10044 10.9403 4.5593 11.3991 5.12551 11.3991C5.69172 11.3991 6.15058 10.9403 6.15058 10.3741C6.15058 9.80786 5.69172 9.349 5.12551 9.349ZM16.4836 4.63348H8.20088V6.27363H16.4836V4.63348ZM5.12551 4.42841C4.5593 4.42841 4.10044 4.88743 4.10044 5.45348C4.10044 6.01968 4.5593 6.47871 5.12551 6.47871C5.69172 6.47871 6.15058 6.01968 6.15058 5.45348C6.15058 4.88743 5.69172 4.42841 5.12551 4.42841ZM1.64014 18.5339V2.4603C1.64014 2.008 2.008 1.64014 2.4603 1.64014H18.5339C18.9861 1.64014 19.3539 2.008 19.3539 2.4603V11.7273H20.9941V2.4603C20.9941 1.10374 19.8905 0 18.5339 0H2.4603C1.10374 0 0 1.10374 0 2.4603V18.5339C0 19.8905 1.10374 20.9941 2.4603 20.9941H11.9322V19.3539H2.4603C2.008 19.3539 1.64014 18.9861 1.64014 18.5339ZM19.8402 21L18.2069 19.3667C17.6543 19.697 17.0088 19.887 16.3197 19.887C14.2848 19.887 12.6293 18.2314 12.6293 16.1967C12.6293 14.1618 14.2848 12.5062 16.3197 12.5062C18.3545 12.5062 20.01 14.1618 20.01 16.1967C20.01 16.9495 19.7831 17.6503 19.3946 18.2348L21 19.8402L19.8402 21ZM16.3197 18.2468C17.4502 18.2468 18.3699 17.3272 18.3699 16.1967C18.3699 15.0662 17.4502 14.1464 16.3197 14.1464C15.1892 14.1464 14.2694 15.0662 14.2694 16.1967C14.2694 17.3272 15.1892 18.2468 16.3197 18.2468Z" fill="#606060" fill-opacity="0.75"/>
</svg>
