<svg width="25" height="25" viewBox="0 0 25 25" fill="none" xmlns="http://www.w3.org/2000/svg">
<path d="M23.5356 13.3587V11.0354C23.5356 10.6309 23.2077 10.3029 22.8032 10.3029C21.29 10.3029 19.8794 10.4306 18.5466 10.6914C17.7697 9.94112 16.8225 9.39678 15.7969 9.09926C16.9152 8.15798 17.6273 6.74862 17.6273 5.17589C17.6273 2.32187 15.3273 0 12.5002 0C9.67315 0 7.37315 2.32187 7.37315 5.17589C7.37315 6.74862 8.08518 8.15798 9.20361 9.09921C8.17795 9.39678 7.23081 9.94112 6.45389 10.6913C5.1211 10.4306 3.71043 10.3029 2.19731 10.3029C1.79281 10.3029 1.46487 10.6308 1.46487 11.0353V13.3586C0.612366 13.661 0 14.4751 0 15.43V16.8948C0 17.8497 0.612366 18.6638 1.46487 18.9662V21.2894C1.46487 21.694 1.79281 22.0219 2.19731 22.0219C6.02693 22.0219 9.17167 22.9293 12.094 24.8775C12.3389 25.0406 12.6614 25.041 12.9066 24.8775C15.8289 22.9293 18.9736 22.0219 22.8033 22.0219C23.2078 22.0219 23.5357 21.694 23.5357 21.2894V18.9662C24.3882 18.6638 25.0006 17.8497 25.0006 16.8948V15.43C25.0005 14.4752 24.3881 13.661 23.5356 13.3587ZM8.83802 5.17589C8.83802 3.12961 10.4809 1.46487 12.5002 1.46487C14.5195 1.46487 16.1624 3.12961 16.1624 5.17589C16.1624 7.19522 14.5195 8.83807 12.5002 8.83807C10.4809 8.83807 8.83802 7.19522 8.83802 5.17589ZM2.19726 17.6273C1.7934 17.6273 1.46483 17.2987 1.46483 16.8949V15.43C1.46483 15.0261 1.7934 14.6976 2.19726 14.6976C2.60113 14.6976 2.9297 15.0261 2.9297 15.43V16.8949C2.9297 17.2987 2.60113 17.6273 2.19726 17.6273ZM11.7678 22.9538C9.10888 21.4333 6.25565 20.6647 2.9297 20.5676V18.9662C3.78221 18.6639 4.39457 17.8497 4.39457 16.8949V15.43C4.39457 14.4752 3.78221 13.661 2.9297 13.3587V11.7782C6.37122 11.877 9.13754 12.6874 11.7678 14.362V22.9538ZM12.5002 13.093C11.1483 12.24 9.74117 11.5905 8.23899 11.1341C9.06439 10.5977 10.036 10.3029 11.0353 10.3029H13.9651C14.9644 10.3029 15.936 10.5977 16.7614 11.1341C15.2592 11.5905 13.852 12.24 12.5002 13.093ZM22.0707 20.5676C18.7448 20.6647 15.8915 21.4334 13.2326 22.9539V14.3626C15.8629 12.6878 18.629 11.8769 22.0707 11.7782V13.3587C21.2182 13.661 20.6058 14.4752 20.6058 15.43V16.8949C20.6058 17.8497 21.2182 18.6639 22.0707 18.9662V20.5676ZM23.5356 16.8949C23.5356 17.2987 23.207 17.6273 22.8032 17.6273C22.3993 17.6273 22.0707 17.2987 22.0707 16.8949V15.43C22.0707 15.0261 22.3993 14.6976 22.8032 14.6976C23.207 14.6976 23.5356 15.0261 23.5356 15.43V16.8949Z" fill="#606060" fill-opacity="0.75"/>
</svg>
