<svg width="23" height="20" viewBox="0 0 23 20" fill="none" xmlns="http://www.w3.org/2000/svg">
<path d="M22.1917 2.66684C22.1903 2.66684 22.1889 2.66667 22.1875 2.66667H16.1161V2C16.1161 0.897222 15.2148 0 14.1071 0H8.75C7.6423 0 6.74107 0.897222 6.74107 2V2.66667H0.669643C0.296805 2.66667 0 2.97083 0 3.33333V18C0 19.1028 0.901228 20 2.00893 20H20.8482C21.9559 20 22.8571 19.1028 22.8571 18V3.3474C22.8571 3.34653 22.8571 3.34566 22.8571 3.34479C22.8315 2.90694 22.561 2.66927 22.1917 2.66684ZM8.08036 2C8.08036 1.63247 8.38083 1.33333 8.75 1.33333H14.1071C14.4763 1.33333 14.7768 1.63247 14.7768 2V2.66667H8.08036V2ZM21.2584 4L19.1788 10.2108C19.0876 10.4835 18.8323 10.6667 18.5437 10.6667H14.7768V10C14.7768 9.63177 14.477 9.33333 14.1071 9.33333H8.75C8.38013 9.33333 8.08036 9.63177 8.08036 10V10.6667H4.31344C4.02483 10.6667 3.76953 10.4835 3.67833 10.2108L1.59877 4H21.2584ZM13.4375 10.6667V12H9.41964V10.6667H13.4375ZM21.5179 18C21.5179 18.3675 21.2174 18.6667 20.8482 18.6667H2.00893C1.63975 18.6667 1.33929 18.3675 1.33929 18V7.44149L2.40775 10.6325C2.68154 11.4505 3.44744 12 4.31344 12H8.08036V12.6667C8.08036 13.0349 8.38013 13.3333 8.75 13.3333H14.1071C14.477 13.3333 14.7768 13.0349 14.7768 12.6667V12H18.5437C19.4097 12 20.1756 11.4505 20.4494 10.6325L21.5179 7.44149V18Z" fill="#606060" fill-opacity="0.75"/>
</svg>
