<svg width="22" height="22" viewBox="0 0 22 22" fill="none" xmlns="http://www.w3.org/2000/svg">
<path d="M18.0711 13.9289C16.9819 12.8398 15.6855 12.0335 14.2711 11.5454C15.786 10.502 16.7812 8.75578 16.7812 6.78125C16.7812 3.59348 14.1878 1 11 1C7.81223 1 5.21875 3.59348 5.21875 6.78125C5.21875 8.75578 6.21402 10.502 7.72898 11.5454C6.31453 12.0335 5.01813 12.8398 3.92895 13.9289C2.0402 15.8177 1 18.3289 1 21H2.5625C2.5625 16.3475 6.34754 12.5625 11 12.5625C15.6525 12.5625 19.4375 16.3475 19.4375 21H21C21 18.3289 19.9598 15.8177 18.0711 13.9289ZM11 11C8.67379 11 6.78125 9.1075 6.78125 6.78125C6.78125 4.455 8.67379 2.5625 11 2.5625C13.3262 2.5625 15.2188 4.455 15.2188 6.78125C15.2188 9.1075 13.3262 11 11 11Z" fill="#606060" fill-opacity="0.75"/>
<path d="M14.3795 11.5304C15.8622 10.4723 16.8313 8.73798 16.8313 6.78125C16.8313 3.56586 14.2154 0.95 11 0.95C7.78461 0.95 5.16875 3.56586 5.16875 6.78125C5.16875 8.73798 6.13776 10.4723 7.62055 11.5304C6.23473 12.0239 4.96443 12.8228 3.89359 13.8936C1.99546 15.7917 0.95 18.3156 0.95 21V21.05H1H2.5625H2.6125V21C2.6125 16.3752 6.37515 12.6125 11 12.6125C15.6248 12.6125 19.3875 16.3752 19.3875 21V21.05H19.4375H21H21.05V21C21.05 18.3156 20.0045 15.7917 18.1064 13.8936C17.0356 12.8228 15.7653 12.0239 14.3795 11.5304ZM11 10.95C8.7014 10.95 6.83125 9.07989 6.83125 6.78125C6.83125 4.48261 8.7014 2.6125 11 2.6125C13.2986 2.6125 15.1687 4.48261 15.1687 6.78125C15.1687 9.07989 13.2986 10.95 11 10.95Z" stroke="#606060" stroke-opacity="0.75" stroke-width="0.1"/>
</svg>
