<svg width="25" height="25" viewBox="0 0 25 25" fill="none" xmlns="http://www.w3.org/2000/svg">
<path d="M24.1916 10.8842H22.3556C21.6508 9.25214 20.4519 7.89678 18.9132 6.9941L18.9059 4.17689C18.9051 3.89148 18.7539 3.62763 18.5082 3.48266C18.2622 3.33759 17.9582 3.33306 17.7082 3.47059L15.5807 4.63992C15.2748 2.03116 13.052 0 10.3625 0C7.46446 0 5.10662 2.35763 5.10662 5.25547C5.10662 5.66482 5.15523 6.06276 5.24415 6.44549C2.11975 7.70417 0 10.7841 0 14.2037C0 16.9159 1.29436 19.4219 3.4846 20.9941V23.6217C3.4846 24.0681 3.84654 24.43 4.29297 24.43H8.3596C8.80581 24.43 9.16764 24.0684 9.16796 23.6222L9.16872 22.5644H13.8694L13.8655 23.6188C13.8648 23.8337 13.9495 24.0401 14.1012 24.1923C14.2529 24.3446 14.4589 24.4302 14.6739 24.4302H18.4995C18.946 24.4302 19.3079 24.0682 19.3079 23.6218V21.1668C20.9935 20.0452 22.2124 18.3569 22.7433 16.4164H24.1916C24.6381 16.4164 25 16.0545 25 15.6081V11.6927C25 11.246 24.6381 10.8842 24.1916 10.8842ZM10.3625 1.61673C12.3689 1.61673 14.0012 3.2491 14.0012 5.25547C14.0012 5.46284 13.9828 5.6659 13.9494 5.8639C13.9477 5.87209 13.9464 5.88039 13.9449 5.88869C13.6442 7.59402 12.1528 8.8942 10.3625 8.8942C8.35593 8.8942 6.72335 7.26183 6.72335 5.25547C6.72335 3.2491 8.35582 1.61673 10.3625 1.61673ZM23.3833 14.7996H22.1007C21.7118 14.7996 21.378 15.0765 21.3062 15.4587C20.9474 17.3687 19.7751 19.0321 18.0901 20.0225C17.843 20.1677 17.6913 20.4328 17.6913 20.7194V22.8134H15.4854L15.4894 21.7591C15.4902 21.5442 15.4054 21.3378 15.2537 21.1856C15.1019 21.0333 14.8959 20.9478 14.681 20.9478H8.36089C7.91467 20.9478 7.55285 21.3094 7.55252 21.7556L7.55177 22.8134H5.10134V20.5661C5.10134 20.2906 4.961 20.034 4.72916 19.8855C2.78024 18.6364 1.61673 16.5125 1.61673 14.2037C1.61673 11.444 3.32756 8.95887 5.84891 7.9442C6.05478 8.28835 6.29923 8.60663 6.57558 8.89409H5.91499C5.46855 8.89409 5.10662 9.25591 5.10662 9.70246C5.10662 10.1489 5.46855 10.5108 5.91499 10.5108H14.8095C15.2559 10.5108 15.6179 10.1489 15.6179 9.70246C15.6179 9.25591 15.2559 8.89409 14.8095 8.89409H14.149C14.7692 8.2489 15.2274 7.44711 15.4552 6.5536L17.2927 5.54368L17.2978 7.47524C17.2985 7.77833 17.4688 8.05554 17.7388 8.19329C19.2914 8.98527 20.4645 10.3234 21.042 11.9611C21.1561 12.2845 21.4616 12.5007 21.8044 12.5007H23.3832V14.7996H23.3833Z" fill="#606060" fill-opacity="0.75"/>
</svg>
