<svg width="25" height="25" viewBox="0 0 25 25" fill="none" xmlns="http://www.w3.org/2000/svg">
<path d="M3.71094 11.7188C4.30222 11.7188 4.83932 11.4836 5.23472 11.1023L7.3904 12.1801C7.37934 12.269 7.37305 12.3592 7.37305 12.4512C7.37305 13.6627 8.35876 14.6484 9.57031 14.6484C10.7819 14.6484 11.7676 13.6627 11.7676 12.4512C11.7676 12.1124 11.6903 11.7912 11.5528 11.5044L14.4829 8.5743C14.7697 8.71181 15.0909 8.78906 15.4297 8.78906C16.6412 8.78906 17.627 7.80334 17.627 6.5918C17.627 6.36292 17.5917 6.14223 17.5264 5.93472L20.072 4.02565C20.4206 4.25854 20.8391 4.39453 21.2891 4.39453C22.5006 4.39453 23.4863 3.40881 23.4863 2.19727C23.4863 0.985718 22.5006 0 21.2891 0C20.0775 0 19.0918 0.985718 19.0918 2.19727C19.0918 2.42615 19.1271 2.64683 19.1923 2.85435L16.6468 4.76341C16.2981 4.53053 15.8796 4.39453 15.4297 4.39453C14.2181 4.39453 13.2324 5.38025 13.2324 6.5918C13.2324 6.93054 13.3097 7.25174 13.4472 7.5386L10.5171 10.4687C10.2303 10.3312 9.90906 10.2539 9.57031 10.2539C8.97903 10.2539 8.44193 10.4891 8.04653 10.8704L5.89085 9.79252C5.90191 9.70364 5.9082 9.61342 5.9082 9.52148C5.9082 8.30994 4.92249 7.32422 3.71094 7.32422C2.49939 7.32422 1.51367 8.30994 1.51367 9.52148C1.51367 10.733 2.49939 11.7188 3.71094 11.7188ZM21.2891 1.46484C21.6928 1.46484 22.0215 1.79348 22.0215 2.19727C22.0215 2.60105 21.6928 2.92969 21.2891 2.92969C20.8853 2.92969 20.5566 2.60105 20.5566 2.19727C20.5566 1.79348 20.8853 1.46484 21.2891 1.46484ZM15.4297 5.85938C15.8335 5.85938 16.1621 6.18801 16.1621 6.5918C16.1621 6.99558 15.8335 7.32422 15.4297 7.32422C15.0259 7.32422 14.6973 6.99558 14.6973 6.5918C14.6973 6.18801 15.0259 5.85938 15.4297 5.85938ZM9.57031 11.7188C9.9741 11.7188 10.3027 12.0474 10.3027 12.4512C10.3027 12.855 9.9741 13.1836 9.57031 13.1836C9.16653 13.1836 8.83789 12.855 8.83789 12.4512C8.83789 12.0474 9.16653 11.7188 9.57031 11.7188ZM3.71094 8.78906C4.11472 8.78906 4.44336 9.1177 4.44336 9.52148C4.44336 9.92527 4.11472 10.2539 3.71094 10.2539C3.30715 10.2539 2.97852 9.92527 2.97852 9.52148C2.97852 9.1177 3.30715 8.78906 3.71094 8.78906Z" fill="#606060" fill-opacity="0.75"/>
<path d="M24.2676 23.5352H23.4863V8.05664C23.4863 7.65209 23.1585 7.32422 22.7539 7.32422H19.8242C19.4197 7.32422 19.0918 7.65209 19.0918 8.05664V23.5352H17.627V12.4512C17.627 12.0466 17.2991 11.7188 16.8945 11.7188H13.9648C13.5603 11.7188 13.2324 12.0466 13.2324 12.4512V23.5352H11.7676V18.3105C11.7676 17.906 11.4397 17.5781 11.0352 17.5781H8.10547C7.70092 17.5781 7.37305 17.906 7.37305 18.3105V23.5352H5.9082V15.3809C5.9082 14.9763 5.58033 14.6484 5.17578 14.6484H2.24609C1.84155 14.6484 1.51367 14.9763 1.51367 15.3809V23.5352H0.732422C0.327873 23.5352 0 23.863 0 24.2676C0 24.6721 0.327873 25 0.732422 25H24.2676C24.6721 25 25 24.6721 25 24.2676C25 23.863 24.6721 23.5352 24.2676 23.5352ZM20.5566 8.78906H22.0215V23.5352H20.5566V8.78906ZM14.6973 13.1836H16.1621V23.5352H14.6973V13.1836ZM8.83789 19.043H10.3027V23.5352H8.83789V19.043ZM2.97852 16.1133H4.44336V23.5352H2.97852V16.1133Z" fill="#606060" fill-opacity="0.75"/>
</svg>
