<svg width="22" height="22" viewBox="0 0 22 22" fill="none" xmlns="http://www.w3.org/2000/svg">
<path d="M18.0711 13.9289C16.9819 12.8398 15.6855 12.0335 14.2711 11.5454C15.786 10.502 16.7812 8.75578 16.7812 6.78125C16.7812 3.59348 14.1878 1 11 1C7.81223 1 5.21875 3.59348 5.21875 6.78125C5.21875 8.75578 6.21402 10.502 7.72898 11.5454C6.31453 12.0335 5.01813 12.8398 3.92895 13.9289C2.0402 15.8177 1 18.3289 1 21H2.5625C2.5625 16.3475 6.34754 12.5625 11 12.5625C15.6525 12.5625 19.4375 16.3475 19.4375 21H21C21 18.3289 19.9598 15.8177 18.0711 13.9289ZM11 11C8.67379 11 6.78125 9.1075 6.78125 6.78125C6.78125 4.455 8.67379 2.5625 11 2.5625C13.3262 2.5625 15.2188 4.455 15.2188 6.78125C15.2188 9.1075 13.3262 11 11 11Z" fill="#333333" fill-opacity="0.9" stroke="#333333" stroke-opacity="0.9" stroke-width="0.5"/>
</svg>
