<svg width="30" height="24" viewBox="0 0 30 24" fill="none" xmlns="http://www.w3.org/2000/svg">
<path d="M15 9C12.5145 9 10.5 11.0154 10.5 13.5C10.5 15.9855 12.5145 18 15 18C17.4849 18 19.5 15.9855 19.5 13.5C19.5 11.0154 17.4849 9 15 9ZM27 4.5H23.4C22.905 4.5 22.3716 4.116 22.2153 3.6462L21.2847 0.8535C21.1278 0.384 20.595 0 20.1 0H9.9C9.405 0 8.8716 0.384 8.7153 0.8538L7.7847 3.6465C7.6278 4.116 7.095 4.5 6.6 4.5H3C1.35 4.5 0 5.85 0 7.5V21C0 22.65 1.35 24 3 24H27C28.65 24 30 22.65 30 21V7.5C30 5.85 28.65 4.5 27 4.5ZM15 21C10.8579 21 7.5 17.6421 7.5 13.5C7.5 9.3582 10.8579 6 15 6C19.1415 6 22.5 9.3582 22.5 13.5C22.5 17.6421 19.1415 21 15 21ZM25.95 9.5979C25.3704 9.5979 24.9 9.1281 24.9 8.5479C24.9 7.9683 25.3704 7.4979 25.95 7.4979C26.5302 7.4979 27 7.9683 27 8.5479C27 9.1281 26.5299 9.5979 25.95 9.5979Z" fill="white"/>
</svg>
