<svg width="15" height="15" viewBox="0 0 15 15" fill="none" xmlns="http://www.w3.org/2000/svg">
<path d="M11.3964 15H3.58391C2.63577 15 1.86523 14.2294 1.86523 13.2812V5.15625C1.86523 4.8975 2.07523 4.6875 2.33398 4.6875C2.59274 4.6875 2.80273 4.8975 2.80273 5.15625V13.2812C2.80273 13.7119 3.15327 14.0625 3.58391 14.0625H11.3964C11.8271 14.0625 12.1777 13.7119 12.1777 13.2812V5.15625C12.1777 4.8975 12.3877 4.6875 12.6465 4.6875C12.9052 4.6875 13.1152 4.8975 13.1152 5.15625V13.2812C13.1152 14.2294 12.3446 15 11.3964 15Z" fill="#999999"/>
<path d="M13.8964 5.625H1.08398C0.825233 5.625 0.615234 5.415 0.615234 5.15625V3.59379C0.615234 2.64565 1.38588 1.875 2.33402 1.875H12.6465C13.5947 1.875 14.3652 2.64565 14.3652 3.59379V5.15625C14.3652 5.415 14.1552 5.625 13.8964 5.625ZM1.55273 4.6875H13.4277V3.59379C13.4277 3.16315 13.0772 2.8125 12.6465 2.8125H2.33402C1.90338 2.8125 1.55273 3.16315 1.55273 3.59379V4.6875Z" fill="#999999"/>
<path d="M10.1464 2.8125C9.8877 2.8125 9.6777 2.6025 9.6777 2.34375V1.09371C9.6777 1.00754 9.60777 0.9375 9.52148 0.9375H5.45895C5.37277 0.9375 5.30273 1.00754 5.30273 1.09371V2.34375C5.30273 2.6025 5.09274 2.8125 4.83398 2.8125C4.57523 2.8125 4.36523 2.6025 4.36523 2.34375V1.09371C4.36523 0.490608 4.85584 0 5.45895 0H9.52148C10.1246 0 10.6152 0.490608 10.6152 1.09371V2.34375C10.6152 2.6025 10.4052 2.8125 10.1464 2.8125Z" fill="#999999"/>
<path d="M7.49024 12.5C7.23148 12.5 7.02148 12.29 7.02148 12.0313V7.96875C7.02148 7.71 7.23148 7.5 7.49024 7.5C7.74899 7.5 7.95899 7.71 7.95899 7.96875V12.0313C7.95899 12.29 7.74899 12.5 7.49024 12.5Z" fill="#999999"/>
<path d="M4.83398 12.5C4.57523 12.5 4.36523 12.29 4.36523 12.0313V7.96875C4.36523 7.71 4.57523 7.5 4.83398 7.5C5.09274 7.5 5.30273 7.71 5.30273 7.96875V12.0313C5.30273 12.29 5.09274 12.5 4.83398 12.5Z" fill="#999999"/>
<path d="M10.1465 12.5C9.88773 12.5 9.67773 12.29 9.67773 12.0313V7.96875C9.67773 7.71 9.88773 7.5 10.1465 7.5C10.4052 7.5 10.6152 7.71 10.6152 7.96875V12.0313C10.6152 12.29 10.4052 12.5 10.1465 12.5Z" fill="#999999"/>
</svg>
